<svg width="34" height="28" viewBox="0 0 34 28" xmlns="http://www.w3.org/2000/svg"><title>Home icon</title><g fill="#8D9AAB" fill-rule="evenodd"><path d="M17 6.246l-11.416 9.61c0 .012-.003.033-.01.06-.007.027-.01.046-.01.06v9.73c0 .35.126.656.377.912.253.257.55.386.895.386h7.624V19.22h5.082v7.784h7.624c.344 0 .642-.13.893-.386.25-.256.377-.56.377-.912v-9.73c0-.054-.008-.094-.02-.12L17 6.245"/><path d="M32.784 13.666l-4.348-3.69v-8.27c0-.19-.06-.345-.18-.466-.117-.122-.27-.183-.455-.183h-3.81c-.187 0-.34.06-.458.183-.12.12-.18.277-.18.466V5.66L18.51 1.522c-.424-.35-.927-.527-1.51-.527-.582 0-1.085.176-1.51.527L1.217 13.666c-.133.107-.205.253-.22.435-.012.184.034.343.14.478l1.23 1.5c.107.12.246.196.418.223.16.014.318-.033.477-.14L17 4.46 30.74 16.16c.105.093.244.14.416.14h.06c.172-.026.31-.1.417-.222l1.23-1.5c.107-.135.153-.294.14-.477-.014-.18-.087-.326-.22-.434"/></g></svg>
