<svg width="24" height="20" viewBox="0 0 24 20" xmlns="http://www.w3.org/2000/svg"><title>right-arrow</title><g fill="none" fill-rule="evenodd"><path d="M.132 10.942c0 .67.523 1.22 1.178 1.22h15.057l-4.144 4.287c-.457.473-.457 1.246 0 1.728l1.113 1.15c.458.475 1.204.475 1.67 0L23.06 11c.228-.237.345-.548.345-.862 0-.31-.117-.625-.346-.862L15.006.944C14.55.47 13.8.47 13.337.943l-1.114 1.15c-.457.474-.457 1.247 0 1.73l4.145 4.273H1.315c-.65 0-1.178.55-1.178 1.22L.13 10.942h.002z" fill="#DF5104"/></g></svg>